HIERARCHY
ROOT hip
{
	OFFSET 0.000000 0.000000 0.000000 
	CHANNELS 6 Xposition Yposition Zposition Xrotation Zrotation Yrotation
	JOINT abdomen
	{
		OFFSET 0.000000 3.402643 0.000000 
		CHANNELS 3 Xrotation Zrotation Yrotation
		JOINT chest
		{
			OFFSET 0.000000 8.438565 -0.680529 
			CHANNELS 3 Xrotation Zrotation Yrotation
			JOINT neck
			{
				OFFSET 0.000000 10.207942 -0.272212 
				CHANNELS 3 Xrotation Zrotation Yrotation
				JOINT head
				{
					OFFSET 0.000000 3.130431 0.000000 
					CHANNELS 3 Xrotation Zrotation Yrotation
					End Site
					{
						OFFSET 0.000000 3.130435 0.000000 
					}
				}
			}
			JOINT lCollar
			{
				OFFSET 3.470700 6.669187 -0.816635 
				CHANNELS 3 Yrotation Zrotation Xrotation
				JOINT lShldr
				{
					OFFSET 3.198488 0.000000 0.000000 
					CHANNELS 3 Zrotation Yrotation Xrotation
					JOINT lForeArm
					{
						OFFSET 10.139888 0.000000 0.000000 
						CHANNELS 3 Yrotation Zrotation Xrotation
						JOINT lHand
						{
							OFFSET 8.370511 0.000000 0.000000 
							CHANNELS 3 Zrotation Yrotation Xrotation
							End Site
							{
								OFFSET 4.083176 0.000000 0.000000 
							}
						}
					}
				}
			}
			JOINT rCollar
			{
				OFFSET -3.470700 6.669187 -0.816635 
				CHANNELS 3 Yrotation Zrotation Xrotation
				JOINT rShldr
				{
					OFFSET -3.198488 0.000000 0.000000 
					CHANNELS 3 Zrotation Yrotation Xrotation
					JOINT rForeArm
					{
						OFFSET -10.139888 0.000000 0.000000 
						CHANNELS 3 Yrotation Zrotation Xrotation
						JOINT rHand
						{
							OFFSET -8.370511 0.000000 0.000000 
							CHANNELS 3 Zrotation Yrotation Xrotation
							End Site
							{
								OFFSET -4.083176 0.000000 0.000000 
							}
						}
					}
				}
			}
		}
	}
	JOINT lThigh
	{
		OFFSET 5.308129 -1.633274 1.361059 
		CHANNELS 3 Xrotation Zrotation Yrotation
		JOINT lShin
		{
			OFFSET -2.041588 -20.007561 0.000000 
			CHANNELS 3 Xrotation Zrotation Yrotation
			JOINT lFoot
			{
				OFFSET 0.000000 -19.190928 -1.224953 
				CHANNELS 3 Xrotation Yrotation Zrotation
				End Site
				{
					OFFSET 0.000000 -2.449906 4.627600 
				}
			}
		}
	}
	JOINT rThigh
	{
		OFFSET -5.308129 -1.633274 1.361059 
		CHANNELS 3 Xrotation Zrotation Yrotation
		JOINT rShin
		{
			OFFSET 2.041588 -20.007561 0.000000 
			CHANNELS 3 Xrotation Zrotation Yrotation
			JOINT rFoot
			{
				OFFSET 0.000000 -19.190928 -1.224953 
				CHANNELS 3 Xrotation Yrotation Zrotation
				End Site
				{
					OFFSET 0.000000 -2.449906 4.627600 
				}
			}
		}
	}
}
MOTION
Frames: 6
Frame Time: 0.016667
22.596304 48.724648 109.256882 -3.525390 -0.527344 0.380770 0.000000 0.000000 0.000000 2.998047 5.966797 -1.259766 -9.667968 -1.601563 2.402071 1.025391 -4.189453 4.930927 2.695313 -12.265624 3.046875 6.259766 9.960938 8.741926 3.242188 3.974609 2.050781 -1.455078 -2.705078 -3.671875 -3.359375 3.828125 2.148437 -10.576172 -2.734375 6.454614 -6.552734 -2.158203 1.982790 -6.123047 2.578125 -11.132813 7.171296 6.469555 1.167158 7.459726 -2.628018 -0.407490 -3.151283 -0.484192 1.690306 6.920504 -9.918766 -4.328197 7.062835 3.920756 0.459329 0.356109 1.445175 -6.770909 
22.591648 48.723091 109.273972 -3.525390 -0.527344 0.380770 0.000000 0.000000 0.000000 3.173828 5.966797 -1.239219 -9.843750 -1.601563 2.411836 0.849609 -4.189453 4.765626 2.695313 -12.265624 3.046875 6.074219 9.960938 8.740234 3.417969 3.974609 2.030573 -1.445313 -2.880860 -3.496094 -3.359375 3.828125 2.148437 -10.576172 -2.734375 6.454614 -6.376953 -2.158203 1.992555 -6.123047 2.578125 -11.132813 7.230311 6.401878 0.989482 7.459487 -2.657301 -0.418613 -3.122601 -0.277720 1.775043 6.920504 -9.918767 -4.328197 7.062836 3.920757 0.459329 0.623921 1.778655 -6.831846 
22.586990 48.723091 109.289482 -3.525390 -0.527344 0.380770 0.000000 0.000000 0.000000 3.173828 5.966797 -1.239219 -9.843750 -1.601563 2.411836 0.673828 -4.189453 4.785156 2.695313 -12.089844 3.048920 6.074219 9.785157 8.732130 3.593750 3.974610 2.011042 -1.611328 -3.066406 -3.476562 -3.173828 3.837891 2.138672 -10.576172 -2.734375 6.278833 -6.552734 -2.158203 1.982790 -6.132813 2.753906 -10.956563 7.230311 6.401878 0.989482 7.459487 -2.657282 -0.418613 -3.122601 -0.277720 1.775043 6.920504 -9.918767 -4.328197 7.062835 3.920757 0.459329 0.623920 1.778656 -6.831845 
22.580778 48.723091 109.305016 -3.525390 -0.527344 0.380770 0.000000 0.000000 0.000000 3.349609 5.781250 -1.406250 -9.843750 -1.425781 2.372804 0.683594 -4.013672 4.755232 2.695313 -12.089844 3.048920 6.074219 9.785157 8.732130 3.769531 3.964844 2.001953 -1.601563 -3.242188 -3.476562 -3.173828 3.837891 2.138672 -10.576171 -2.910156 6.278803 -6.552734 -2.158203 1.982790 -6.132813 2.753906 -10.780781 7.230311 6.401878 0.989482 7.459856 -2.657115 -0.408856 -3.123583 -0.289688 1.780692 6.918685 -9.916063 -4.496541 7.063270 3.920957 0.439838 0.679855 1.822856 -6.804703 
22.576122 48.723091 109.318985 -3.525390 -0.527344 0.380770 0.000000 0.000000 0.000000 3.349609 5.781250 -1.406250 -10.019531 -1.425781 2.382812 0.683594 -4.013672 4.755232 2.695313 -12.089844 3.048920 6.074219 9.609375 8.730468 3.945313 3.964844 1.981747 -1.591797 -3.417969 -3.477144 -2.998047 3.837925 2.128236 -10.576171 -2.910156 6.278803 -6.728516 -2.148438 1.972669 -6.132813 2.753906 -10.605000 7.230311 6.401878 0.989482 7.459487 -2.657302 -0.418613 -3.122603 -0.277720 1.775043 6.918686 -9.916062 -4.496541 7.063270 3.920957 0.439838 0.679861 1.822856 -6.804703 
22.571463 48.723091 109.332954 -3.525390 -0.527344 0.380770 0.000000 0.000000 0.000000 3.349609 5.781250 -1.406250 -10.019531 -1.425781 2.382812 0.507813 -4.013666 4.764949 2.871094 -12.080079 3.076172 6.074219 9.609375 8.730468 3.945313 3.964844 1.981747 -1.416016 -3.408203 -3.496674 -2.998047 3.837925 2.128236 -10.400391 -2.919922 6.093252 -6.728516 -2.148438 1.972669 -6.132813 2.753906 -10.605000 7.230312 6.401877 0.989482 7.630569 -2.655741 -0.273190 -3.134156 -0.286998 1.760728 6.918686 -9.916062 -4.496541 7.063270 3.920957 0.439838 0.679857 1.822855 -6.804704 
